<svg version="1.1" xmlns="http://www.w3.org/2000/svg" viewBox="0 0 1333 873">
  <!-- svg-source:excalidraw -->
  <defs>
    <style>
      @font-face {
        font-family: "Virgil";
        src: url("https://excalidraw.com/static/fonts/FG_Virgil.woff2");
      }
      @font-face {
        font-family: "Cascadia";
        src: url("https://excalidraw.com/static/fonts/Cascadia.woff2");
      }
    </style>
  </defs>
  <rect x="0" y="0" width="1333" height="873" fill="#ffffff"></rect><g transform="translate(10 68) rotate(0 656.5 331)"><path d="M-0.0390386775135994 0.3639977410435677 C479.42972653899346 4.23312891419977, 960.3070656690747 3.693982633911074, 1313.587432603538 0.7592053845524789 M0.18910219445824625 0.15202869400382044 C328.93878613840786 -2.7447754545733343, 657.7823398638517 -2.681259672217072, 1312.8292742229999 -0.30398157611489296 M1312.7387254044413 -0.7860022112727165 C1312.926573396161 215.7444558095187, 1312.8828514818697 431.6775947995484, 1313.0128819271922 661.4235074952245 M1312.8560905911029 -0.2510768748819828 C1311.3050417839436 143.34070264957847, 1311.3727367102056 286.2249771386385, 1312.627998612076 661.9210035227239 M1313.7735619351267 661.808170504868 C799.9852859606966 666.1201428363696, 288.64611124359055 664.9994017074481, 0.37738612145185474 661.2054686024785 M1313.2801018454134 661.9961799524724 C791.5203426780179 660.1352308294698, 270.6693458702415 659.3988457939549, 0.19158277288079262 661.8920297287405 M-0.444343538582325 662.6930490925909 C1.12173602001369 435.6960120398551, 1.6214741887301207 209.11269111260768, 0.06331823319196701 0.4344344094395638 M0.011746308952569963 661.8060794495046 C0.5834309145659209 514.5232592422515, 0.31110966651141647 366.529760171473, -0.06295669302344323 0.21747106537222863" style="stroke: rgb(0, 0, 0); stroke-width: 1px; fill: none;"></path></g><g transform="translate(298.5 10) rotate(0 34.5 13)"><text x="0" y="18" font-family="Virgil" font-size="20px" fill="#000000" text-anchor="start">Kanban</text></g><g transform="translate(133 150) rotate(0 142.5 214.5)"><path d="M-1.3853393930450972 0.8898063200942574 C98.87554349305229 1.5889365201175052, 199.9416328033135 -0.17496924575640344, 284.0478918575643 -0.4081755136602818 M-0.6292385154866426 0.33219494426934415 C95.78405369568266 1.5895461012405463, 191.02892575360795 1.0879083201226303, 284.721235670343 0.48785912679450205 M284.4143221826755 -0.2910336698502242 C284.60481585510223 118.49649570597629, 284.5528332099555 235.5019879247044, 284.5786910732118 429.1784270082872 M285.4419498766036 0.05285193095549047 C286.41252739849295 91.16200718334679, 286.54778193869174 181.80811011814473, 284.7345128826492 428.5835151594451 M283.65834516205246 427.4909014353763 C208.79494331315414 429.8041597019658, 133.23737305834146 428.7543788701128, 0.5823021604035794 428.79145684118475 M284.86174181177716 429.6603882967083 C189.50407123364067 429.9175413599169, 93.16931324542422 430.3735941923549, 0.6670102023492603 429.00131760115113 M0.21565163970944284 429.649049214516 C-1.6367074150113403 306.1394018594464, -0.29239292235291614 181.81379238829408, -0.3425705438387215 0.9534127610738098 M-0.21901675707391202 428.6522856851927 C-0.9140268419631012 333.33824789717534, -1.6330302461551676 237.3463690054318, -0.22367884045089184 -0.4590098050006062" style="stroke: rgb(0, 0, 0); stroke-width: 1px; fill: none;"></path></g><g transform="translate(151 172) rotate(0 25 12)"><text x="0" y="17" font-family="Virgil" font-size="20px" fill="#000000" text-anchor="start">To Do</text></g><g transform="translate(443 157) rotate(0 131 214)"><path d="M-0.9666233336899445 0.47799225269164297 C75.96692289872055 2.4495307579226875, 152.92388394376076 1.6096159970052624, 260.68710685788267 -0.964178345441492 M-0.29122492679689305 -0.3431110128234707 C88.11652612834399 0.516176685678567, 176.3070664300875 0.597461821202816, 262.52264546092016 -0.7290639239509188 M261.0475785890353 -0.9208166764143153 C263.26590099764377 95.76567956462954, 262.3675932648422 190.30148792479721, 262.7238755658747 427.90774593823113 M261.922462978472 -0.23553337760305776 C263.32040434402717 112.33914479920118, 263.62932443675817 224.22351981897035, 261.7547838686522 428.20812131228604 M261.0443465668053 429.04214545857 C189.4286234088755 429.60641164562605, 117.14490193320432 428.592118068574, -0.3290279003958866 427.1577463901579 M261.53613631876465 428.5797422888554 C175.69713258140206 429.0138516836277, 88.30467226442136 427.7411042442847, -0.3163931438433208 428.42292633906374 M0.5646859903177186 428.43415222659866 C0.11094327539783277 267.9289244273771, 1.716526229781921 108.91502579503333, 0.9258000068391248 -0.9001770686039611 M0.2801257073023952 428.2947555939213 C2.3544944594273662 288.1109549607102, 2.0896109803184366 148.47965093018078, 0.497213667900411 0.4043872207412921" style="stroke: rgb(0, 0, 0); stroke-width: 1px; fill: none;"></path></g><g transform="translate(463.5 175) rotate(0 45.5 12)"><text x="0" y="17" font-family="Virgil" font-size="20px" fill="#000000" text-anchor="start">In Progress</text></g><g transform="translate(751 152) rotate(0 124 217)"><path d="M1.635754311638652 -0.10363249063953013 C98.34720382927605 -0.1727453547405775, 196.4839657561038 -2.583013310942179, 247.3045521685514 -0.48872785499628635 M-0.75262165871424 -0.3156021950811811 C85.93583830199103 -0.8508131726888193, 171.05711710777152 -0.7202265217162384, 247.9516592738588 0.17259803891566322 M248.2716050282611 -1.0029544088852658 C249.59160064305075 162.7980254538221, 250.25163758257858 324.6550798795406, 248.0072080905458 433.1408635362557 M248.3380592045781 0.2862641895080573 C246.33344068518784 96.95061943358135, 246.24390762090985 193.0240704047062, 248.26993251997163 433.8542459500831 M246.82727461082106 432.65597254371534 C150.9959578595801 431.65946745540936, 50.61896386782246 434.1678853009259, 0.6233924445618257 432.965771443888 M248.01758558936987 433.3875508732814 C178.31073735768487 435.3794590975413, 109.16219771545985 435.46371174865584, -0.378741920645874 433.74635810301646 M-0.6266738647956832 433.63276844757024 C0.46341049372127485 292.1677106083707, -0.7726416870786385 150.82078363013156, -0.3205870791192516 0.685198234602712 M-0.5038984973073608 433.56731087638116 C-0.8881405370267572 290.8977310315082, -0.30573393486647044 146.5195683279935, 0.13108950021353882 0.4510024077340848" style="stroke: rgb(0, 0, 0); stroke-width: 1px; fill: none;"></path></g><g transform="translate(769.5 167) rotate(0 21.5 12)"><text x="0" y="17" font-family="Virgil" font-size="20px" fill="#000000" text-anchor="start">Done</text></g><g transform="translate(1018 153.5) rotate(0 142.25 24.75)"><path d="M1.4725586090367995 0.036118415349642184 C111.43819421238344 -0.875777537166004, 222.67255042478388 -1.7608947325270699, 283.6285066111627 0.05745783500374928 M0.5220227417243201 0.018462174656925723 C107.9293894410201 0.1405277819104725, 215.18350057974038 -0.4149281074113673, 283.8033307720939 0.5121197446430664 M283.14175798371434 0.29963187500834465 C284.1947149982955 16.574654423538597, 286.5133903971221 33.78550994936377, 286.26123632863164 50.13881937786937 M284.7280482854694 0.11878789402544498 C284.28263412618077 15.551534445863219, 283.6194216480199 31.586219245381656, 285.3451613392681 50.2830078098923 M285.8213998240167 49.702199509475435 C183.9387026892345 46.91668899703326, 82.19066542166044 47.534499977879165, -1.498839766467575 50.11048804368796 M283.9535260991533 48.886723427793534 C208.71088520325017 51.032522909846826, 134.25417044464754 50.682437724865345, -0.3357893591207903 49.542794680332015 M-0.5992562584578991 50.80114797875285 C0.01067212880589069 37.08643867289648, -1.6381283634807915 28.953802578710018, 0.6724819131195545 1.3744281940162182 M0.7491196002811193 50.25222516991198 C1.0844292005058378 31.783537404704838, 0.17479109368287027 15.259683394990859, -0.08788798190653324 -0.44077461026608944" style="stroke: rgb(0, 0, 0); stroke-width: 1px; fill: none;"></path></g><g transform="translate(1142.5 162.5) rotate(0 7.25 14.25)"><path d="M0.38850643923506145 -0.7056716843508184 C5.515331120789051 -0.6115717518981546, 11.175227606389672 -0.41537381595931944, 13.759380471613259 0.7547452435828743 M0.02512032617814841 0.38326494540087885 C3.9898324347566816 0.4526675897464157, 8.58755469233729 0.6363342973217367, 14.197890082793311 -0.49781348411925136 M12.57263783738017 0.3010481782257557 C14.461988640455528 7.685606384743005, 12.967400384573265 12.785393625684083, 15.228155296295881 29.28430749848485 M15.14996756054461 0.5841150488704443 C14.419649830805138 7.2650658263824885, 14.52337305878289 15.651848131604494, 14.718644568696618 28.691975554451346 M15.244367310311645 28.8544360534288 C7.89735112618655 29.881849932922048, 3.05290747852996 27.210477945460006, 1.3264685689471662 29.364291648659854 M14.549753414886073 28.947089965594934 C9.007556773116812 28.481480064932256, 4.819918742263689 27.742902986649423, -0.03988212863914664 28.949768459750338 M-1.0766334123909473 30.32855047658086 C1.7795815142709763 22.06800487739965, -0.2623013583105057 10.091291828267273, -1.2426873035728931 -1.7588307671248913 M-0.16244172118604183 29.27567662857473 C0.5417065028380603 20.56339767957106, -0.8771265741158276 12.262882875464856, 0.11591012217104435 -0.9024926815181971" style="stroke: rgb(0, 0, 0); stroke-width: 1px; fill: none;"></path></g><g transform="translate(1129 170.5) rotate(0 22.25 5.75)"><path d="M1.832451481372118 -1.7345426864922047 C15.984187709819526 1.173342809351161, 31.976885394565763 1.1990830751974135, 42.79684330895543 -1.0766334123909473 M-0.04091391898691654 -0.9557834174484015 C16.797181158605966 -1.2836034425068648, 34.57706967797131 0.10399238984100517, 44.878443321213126 -0.16244172118604183 M43.65786058185622 -0.71185321835801 C44.71224850253202 3.304161539115012, 44.32108786241151 8.930930405016989, 45.062543334346266 12.229292228538544 M44.73388168648817 0.15288847028277808 C45.061450807284565 3.6717074212152516, 44.35001339567825 6.49157555694692, 44.40167363868095 11.238212768128141 M43.99446000531316 12.578916471451521 C35.64010666208342 12.922080979971215, 27.429693290777504 9.819716082243248, -0.8525113873183727 11.922822754830122 M44.4619345869869 12.044448444619775 C34.49910379042849 11.906894997106866, 25.94181155283004 12.091636672960595, -0.749220410361886 11.881571421399713 M0.12059155581518999 11.274990755040198 C-0.8202090980578214 6.682589462399482, -0.8835497232247143 3.758077287953346, 0.5276796656660736 -0.8748586329631507 M0.5315191997680813 11.96329200505279 C-0.3681108887121081 7.974296497413888, 0.5446077932789922 4.718866654066368, 0.4919942765031009 0.4057210811879486" style="stroke: rgb(0, 0, 0); stroke-width: 1px; fill: none;"></path></g><g transform="translate(1032 264) rotate(0 116.5 160)"><path d="M-1.3629884614301204 -0.10308729334511757 C54.75289138835087 -0.7267412854258983, 109.7991631899385 -0.0757883500911205, 234.20145103395714 -0.09060545452828407 M-0.20098142339909075 0.36665830248959064 C69.39555070592759 2.7125731545408875, 138.28614719646032 1.1503378034628544, 232.44869124691266 -0.7522378796507597 M233.54624959642635 -0.8035069042404591 C234.41524105913763 114.34139015088478, 234.0036405144189 226.57981029893605, 233.20245895152792 318.6825372043878 M233.13515669412334 0.5402220278722495 C230.52285433284038 98.75286138808124, 231.68237354745287 197.60505511564557, 232.9227004605194 319.4500697313935 M231.34363050837274 319.79170006033837 C179.2635634243632 321.8253791307076, 125.76154257028536 322.15712190129625, 0.5095407933107853 320.66851710491693 M232.54539417126492 319.5825531285043 C178.38256698746284 321.61500844171246, 123.5777545008043 321.7898885566012, 0.7185159835200071 319.17289969426434 M-0.596487030116707 320.4468572364322 C0.8679530604133544 228.53462571901719, 1.5031067232751785 139.37778459335624, 1.0406795102265776 0.0548941471234858 M0.07329350283248723 320.36294322699086 C-0.2234151945654601 197.56373171952407, 0.5140636091278344 75.55343085187356, -0.6506417447790355 -0.012202228820160031" style="stroke: rgb(0, 0, 0); stroke-width: 1px; fill: none;"></path></g><g transform="translate(1048.5 285) rotate(0 60.5 115)"><text x="0" y="18.555555555555557" font-family="Virgil" font-size="20px" fill="#000000" text-anchor="start">title</text><text x="0" y="44.111111111111114" font-family="Virgil" font-size="20px" fill="#000000" text-anchor="start"></text><text x="0" y="69.66666666666667" font-family="Virgil" font-size="20px" fill="#000000" text-anchor="start">descriptuion</text><text x="0" y="95.22222222222223" font-family="Virgil" font-size="20px" fill="#000000" text-anchor="start">estimate</text><text x="0" y="120.77777777777779" font-family="Virgil" font-size="20px" fill="#000000" text-anchor="start">deadline</text><text x="0" y="146.33333333333334" font-family="Virgil" font-size="20px" fill="#000000" text-anchor="start">creator</text><text x="0" y="171.8888888888889" font-family="Virgil" font-size="20px" fill="#000000" text-anchor="start">priority</text><text x="0" y="197.44444444444446" font-family="Virgil" font-size="20px" fill="#000000" text-anchor="start">date_added</text><text x="0" y="223" font-family="Virgil" font-size="20px" fill="#000000" text-anchor="start">color</text></g><g transform="translate(1134 544) rotate(0 60.5 15.5)"><path d="M1.4527719169855118 -1.246795192360878 C30.326015993207697 0.0827145708352327, 62.347468687593945 -0.3019285070151091, 119.4879648834467 0.5528888553380966 M0.5895171090960503 0.5803731754422188 C38.50606472417712 0.6900453539937734, 78.31762424111366 0.1667411299794912, 120.27440094202757 0.6078726127743721 M119.39921595156193 0.5531978458166122 C120.56779571942985 10.539797029644252, 120.4511952059716 21.33497470468283, 119.07236362993717 30.064780697226524 M120.35921119898558 0.4837862327694893 C122.09140408493579 10.02236070111394, 121.85794485069812 18.05667033791542, 121.01064013689756 30.610048182308674 M120.8130824714899 32.30398128926754 C77.48753474727272 33.07775862686336, 33.39320345371961 31.205963449403644, -1.045248731970787 31.79845903813839 M120.60356806963682 30.83428943902254 C95.267319688946 30.144601281657813, 67.65176680386065 29.60681646682322, 0.6773526594042778 31.490222103893757 M-1.0727183669805527 29.811707481741905 C-0.07671967320144174 21.60286475047469, -0.3384923058003187 13.791467697918412, 0.5086629539728165 1.6694512218236923 M-0.2665236070752144 31.638962872326374 C-0.6597597412019969 24.674825879186393, -0.05085752524435522 18.66980296075344, -0.009885318577289581 0.8257869556546211" style="stroke: rgb(0, 0, 0); stroke-width: 1px; fill: none;"></path></g><g transform="translate(1158.5 546) rotate(0 29.5 13)"><text x="0" y="18" font-family="Virgil" font-size="20px" fill="#000000" text-anchor="start">submit</text></g><g><g transform="translate(1153 564) rotate(0 -219.4488509255275 108.94541992422194)"><path d="M0.6024352937936783 -0.6459332853555679 C-72.47245118717353 36.00874394675096, -364.87028841276964 182.4080271969239, -438.04561739861964 219.00255123078824 M-0.31748941831290733 -1.1117113823443652 C-73.71295015188554 35.153218332653246, -366.35240979445473 180.4668118736396, -439.5001371448487 217.2398810081929" style="stroke: rgb(0, 0, 0); stroke-width: 1px; fill: none;"></path></g><g transform="translate(1153 564) rotate(0 -219.4488509255275 108.94541992422194)"><path d="M-419.93567370554564 197.06016410597965 C-424.2428120885472 203.75408613504908, -431.26508578735616 211.05384157579448, -439.8823199664801 216.89289803735912 M-418.9705135964429 196.30379060366556 C-423.09140700887025 200.31554804106545, -428.9921653610947 206.5169306295212, -439.81092602215705 217.1499844559282" style="stroke: rgb(0, 0, 0); stroke-width: 1px; fill: none;"></path></g><g transform="translate(1153 564) rotate(0 -219.4488509255275 108.94541992422194)"><path d="M-410.77104060353423 215.4212507429779 C-417.99427184330926 216.03515610277032, -428.07425014045276 217.20888572061105, -439.8823199664801 216.89289803735912 M-409.8058804944315 214.6648772406638 C-416.06923853258735 214.24566430659175, -424.16264217418484 216.0541432540334, -439.81092602215705 217.1499844559282" style="stroke: rgb(0, 0, 0); stroke-width: 1px; fill: none;"></path></g></g><g transform="translate(597 749) rotate(0 59.5 57)"><path d="M80.56311365630268 4.215329322088131 C89.60179203097309 6.9512003230862955, 99.39590327418858 14.613181601393492, 105.50775908156291 21.863078656975475 C111.61961488893724 29.112975712557457, 115.61585182447809 38.51578769515741, 117.23424850054866 47.71471165558003 C118.85264517661923 56.91363561600266, 118.58214969188211 68.08501221532784, 115.21813913798634 77.05662241951124 C111.85412858409057 86.02823262369465, 104.58842683104774 95.48443632885437, 97.05018517717404 101.54437288068047 C89.51194352330035 107.60430943250657, 79.5760132330144 111.78069126868247, 69.98868921474418 113.41624173046785 C60.401365196473975 115.05179219225322, 48.644524899450715 114.32768077431008, 39.52624106755279 111.35767565139268 C30.40795723565486 108.38767052847528, 21.75286113874618 102.82135139535355, 15.278986223356604 95.59621099296342 C8.805111307967028 88.3710705905733, 2.7240707152788417 77.39529486514009, 0.6829915752153397 68.00683323705191 C-1.3580875648481623 58.618371608963734, 0.09535672952404184 48.043917832263524, 3.032511382975592 39.26544122443437 C5.969666036427142 30.486964616605214, 11.308012802104304 21.58850028001533, 18.30591949592464 15.33597359007699 C25.303826189744978 9.083446900138647, 35.22341969739718 3.9406431624983562, 45.01995154589762 1.750281084804314 C54.816483394398055 -0.44008099288972824, 70.18108845211306 1.304791186584847, 77.08511058692726 2.193801123912735 C83.98913272174146 3.0828110612406228, 83.84392425772711 5.5069279697698805, 86.44408435478277 7.0843407087716415 C89.04424445183844 8.661753447773402, 92.9132804243778 10.946038807479102, 92.68607116926121 11.658277557923299 M69.17503885480548 -0.48099314381624936 C78.64668448516812 0.17711456785643043, 90.28037180048563 6.059830073136787, 98.07913543738722 12.082288320124071 C105.87789907428882 18.104746567111356, 112.83401036235418 26.782790976789983, 115.96762067621503 35.653756338107456 C119.10123099007589 44.52472169942493, 118.45836111708489 56.04764275887549, 116.88079732055233 65.30808048802892 C115.30323352401977 74.56851821718236, 112.35931173751548 83.89537352771112, 106.50223789701965 91.21638271302805 C100.64516405652383 98.53739189834499, 90.94534103639974 105.54850414468028, 81.73835427757739 109.23413559993054 C72.53136751875503 112.9197670551808, 61.17916377232714 114.47135970968625, 51.2603173440855 113.33017144452961 C41.34147091584386 112.18898317937297, 30.00073733387097 107.93096762818533, 22.225275708127512 102.38700600899071 C14.449814082384055 96.84304438979609, 8.199755225210119 88.68464882604448, 4.607547589624751 80.06640172936194 C1.0153399540393835 71.4481546326794, -0.24088428055559774 60.14779333865479, 0.6720298946153065 50.67752342889544 C1.5849440697862107 41.20725351913609, 4.1984126291649195 30.66088965525711, 10.085032640650176 23.244782270805807 C15.971652652135433 15.828674886354502, 26.81628047780582 10.209447566225496, 35.99174996352685 6.180879122187605 C45.16721944924788 2.152310678149713, 59.35955321030491 0.13050849956431665, 65.13784955497637 -0.9266283934215451 C70.91614589964783 -1.983765286407407, 69.96952077859561 -0.6351455806782269, 70.66152803155563 -0.16194223572756528 C71.35353528451566 0.31126110922309635, 69.45506479417806 1.028731488497769, 69.28989307273655 1.9125916762824247" style="stroke: rgb(0, 0, 0); stroke-width: 1px; fill: none;"></path></g><g transform="translate(913.5 683) rotate(0 21.5 13)"><text x="0" y="18" font-family="Virgil" font-size="20px" fill="#000000" text-anchor="start">post</text></g><g><g transform="translate(586 773) rotate(0 -2.947785443104806 -43.42679506242274)"><path d="M-1.1519243627786635 1.0590843111276624 C-2.1326749871174493 -13.654303146402043, -5.515255140264829 -72.98087572356066, -6.341217556595803 -87.91267443597317 M0.445646670386195 -1.6695737879723311 C-0.39965226757029715 -16.504607885802788, -4.395382838522395 -73.31499831450483, -5.796319212391973 -87.62470137290657" style="stroke: rgb(0, 0, 0); stroke-width: 1px; fill: none;"></path></g><g transform="translate(586 773) rotate(0 -2.947785443104806 -43.42679506242274)"><path d="M8.494505031018624 -59.26673710446775 C3.510405188298606 -66.13827471220857, -0.8023014127936126 -75.55777128309256, -4.282108049467206 -87.1376558315009 M6.204789882510076 -60.106670760623814 C3.6431458112722535 -65.89259102377987, 1.8200158233504586 -71.99473408469986, -4.918356258049608 -87.47493231259287" style="stroke: rgb(0, 0, 0); stroke-width: 1px; fill: none;"></path></g><g transform="translate(586 773) rotate(0 -2.947785443104806 -43.42679506242274)"><path d="M-11.95833436100161 -57.5930097700238 C-11.590134790512865 -64.70663001250412, -10.545414091962712 -74.56454358465817, -4.282108049467206 -87.1376558315009 M-14.248049509510158 -58.43294342617986 C-12.550835636482969 -64.61022675134114, -10.104098754259072 -71.06178794233199, -4.918356258049608 -87.47493231259287" style="stroke: rgb(0, 0, 0); stroke-width: 1px; fill: none;"></path></g></g><g transform="translate(538 651) rotate(0 16 13)"><text x="0" y="18" font-family="Virgil" font-size="20px" fill="#000000" text-anchor="start">get</text></g><g><g transform="translate(525 647) rotate(0 -77.69379796087742 -18.331976823173477)"><path d="M0.6313738435506819 -0.5531979650259018 C-25.373974966009452 -6.545584242542585, -130.14096775750318 -30.454622436563174, -156.0189697653055 -36.08954106271267 M-1.329794573262334 -1.4338459461182356 C-26.84015457180639 -7.401335666303833, -128.59138199436168 -30.460249832595387, -153.91766507335007 -36.110755681321024" style="stroke: rgb(0, 0, 0); stroke-width: 1px; fill: none;"></path></g><g transform="translate(525 647) rotate(0 -77.69379796087742 -18.331976823173477)"><path d="M-125.08318411502847 -41.623752613115656 C-134.9408726189333 -38.01471856249029, -141.0223050704889 -38.406713855049325, -154.2518916965276 -37.56408308379352 M-123.22539135757694 -40.10955767010485 C-130.8458901372055 -38.3298786157603, -136.4163111902241 -37.989955532523744, -154.80934995569288 -36.63171125136316" style="stroke: rgb(0, 0, 0); stroke-width: 1px; fill: none;"></path></g><g transform="translate(525 647) rotate(0 -77.69379796087742 -18.331976823173477)"><path d="M-129.59282650793813 -21.60418398954358 C-138.07013130554836 -24.046640998241507, -142.79373933487616 -30.46640009803508, -154.2518916965276 -37.56408308379352 M-127.7350337504866 -20.08998904653277 C-134.47438409078282 -22.720230393204673, -139.04525299770538 -26.817599901742216, -154.80934995569288 -36.63171125136316" style="stroke: rgb(0, 0, 0); stroke-width: 1px; fill: none;"></path></g></g><g><g transform="translate(570 631) rotate(0 0.8564701139554813 -18.81912120159717)"><path d="M0.5045312494039536 -0.9720600217580795 C0.6659233659505844 -6.6465355326732, 0.2647437661886215 -29.320328975717224, 0.09068971574306484 -34.91673136651516 M1.6222505121678115 -1.705527147576213 C1.5464145665615798 -7.605790839319429, 0.7743901520222428 -31.209638400996724, 0.5390593486279252 -36.66618238143623" style="stroke: rgb(0, 0, 0); stroke-width: 1px; fill: none;"></path></g><g transform="translate(570 631) rotate(0 0.8564701139554813 -18.81912120159717)"><path d="M5.70387751813605 -20.319058825755484 C5.8671459287419205 -24.889365503445575, 4.907976828875672 -26.830076994388197, -0.6702578121423723 -35.11484992444515 M7.222001924362029 -20.185845891507334 C4.90543044682233 -24.405468069189027, 3.5164359670075385 -26.352457772421054, 1.2089911394193773 -36.63870908726007" style="stroke: rgb(0, 0, 0); stroke-width: 1px; fill: none;"></path></g><g transform="translate(570 631) rotate(0 0.8564701139554813 -18.81912120159717)"><path d="M-6.258828936579047 -19.88152840630591 C-3.3785123242609387 -24.601390182336115, -1.623804874230928 -26.64136044467009, -0.6702578121423719 -35.11484992444515 M-4.740704530353067 -19.74831547205776 C-4.584655661822124 -23.949501415947243, -3.499740971178769 -25.986973195382358, 1.208991139419377 -36.63870908726007" style="stroke: rgb(0, 0, 0); stroke-width: 1px; fill: none;"></path></g></g><g><g transform="translate(629 655) rotate(0 68.15477145127954 -21.177275286242377)"><path d="M-0.767287865281105 -0.9525449842214584 C21.96925683915615 -8.00311709344387, 113.86735092103481 -34.70369072854518, 136.90106664597988 -41.41193190515041 M-0.7791297168284654 0.7894389731436968 C21.905794377848505 -6.109586874768137, 113.86537717156111 -36.13855157308281, 137.0886726193875 -43.14398954562843" style="stroke: rgb(0, 0, 0); stroke-width: 1px; fill: none;"></path></g><g transform="translate(629 655) rotate(0 68.15477145127954 -21.177275286242377)"><path d="M111.70439503283264 -26.707623941517777 C122.23081321179653 -31.879397522529533, 130.67515823987873 -36.0814873491151, 135.1762852334231 -43.995497432872654 M113.59833228529455 -24.462510352648206 C122.40667540009318 -30.66679105061253, 130.37515178927868 -36.86944929400708, 136.6902269013971 -42.51724266014993" style="stroke: rgb(0, 0, 0); stroke-width: 1px; fill: none;"></path></g><g transform="translate(629 655) rotate(0 68.15477145127954 -21.177275286242377)"><path d="M105.52937244622859 -46.277731208489236 C118.30161345556405 -44.75325188126666, 128.84639160310377 -42.29857229877237, 135.1762852334231 -43.995497432872654 M107.4233096986905 -44.032617619619664 C118.25308450917069 -43.48303436080078, 128.34045037870393 -42.97043062163668, 136.6902269013971 -42.51724266014993" style="stroke: rgb(0, 0, 0); stroke-width: 1px; fill: none;"></path></g></g><g transform="translate(144 208) rotate(0 125.5 67.5)"><path d="M0.8229062515709519 1.0063415814210295 C89.525706915327 -1.0578400576597027, 180.76315555180034 -0.5983014319192701, 252.05266798661162 -1.498472670654547 M0.8085668425066649 -0.07908776077420114 C81.96036619639723 -0.18148589379076108, 165.04770643258152 -0.18367782956441991, 251.58790724657752 0.08286114342826008 M249.8100979477167 -1.7619657665491104 C249.95654483549296 39.3213790692389, 248.5344938825816 78.86076333373785, 251.78564430773258 134.83637855947018 M250.73112463206053 -0.8828858062624931 C251.96191416420044 52.06774132326245, 251.75740085281433 104.85443565249443, 251.6100163385272 135.098677046597 M249.49799783379217 134.5954157820245 C194.9723161775244 131.69656183149547, 138.00632158850513 132.8494244512056, 0.05131027325178384 134.29791213685812 M250.7381121476546 135.18268583514597 C189.8451381867072 133.85963706933717, 127.96966092953792 134.4083214762271, -0.643921797554332 135.09991825483917 M1.4395430237054825 135.18129728734493 C-0.9848953258246185 90.47264226898551, -2.1087590228766206 48.99639386683701, 0.6534011512994766 0.32697437703609467 M0.4174930974841118 135.80930865556002 C0.5367965247482062 99.51426180824637, -0.15641002394258974 61.42491106688976, -0.09156990796327591 -0.1710272952914238" style="stroke: rgb(0, 0, 0); stroke-width: 1px; fill: none;"></path></g><g transform="translate(157.5 218.5) rotate(0 34.5 25.5)"><text x="0" y="18.5" font-family="Virgil" font-size="20px" fill="#000000" text-anchor="start">title</text><text x="0" y="44" font-family="Virgil" font-size="20px" fill="#000000" text-anchor="start">desc,,,,,</text></g><g transform="translate(312 299) rotate(0 36.5 16)"><path d="M0.12163780629634857 -0.42145226895809174 C25.835141519457103 -1.2038094795495273, 52.252243255078795 0.8130433761328458, 73.24120710790157 -0.6916944831609726 M-0.408179871737957 0.7494113370776176 C19.87160425260663 -0.9733241149038077, 37.86758252978325 0.17546457566320894, 73.97256053239107 0.46945904940366745 M71.46173094213009 -1.7856924384832382 C71.839464494586 7.441540613770485, 71.61450464427472 15.62948228418827, 71.75608967244625 31.204578652977943 M72.58602298051119 0.9152922555804253 C72.77773458987474 10.102874867618084, 72.32534558802843 20.77921938151121, 72.19345558434725 31.294512026011944 M72.19988010823727 33.41270472109318 C56.222536244243386 34.00873497493565, 39.943907590210436 31.147993836477397, -0.9974756389856339 30.853430524468422 M72.78805816918612 31.35588478296995 C43.91566859707236 31.43821201942861, 15.269727084040639 30.96744809769094, 0.021841175854206085 32.29539965838194 M0.7047376483678818 30.391024366021156 C0.8585280293226243 25.281504288315773, 0.40129889190196993 19.215700641274452, -0.5414614826440811 -0.887228712439537 M-0.5762442275881767 32.1148900911212 C-0.3632289883494377 21.66451346129179, 0.5346475127339363 10.528582327067852, -0.7461401149630547 -0.9294893816113472" style="stroke: rgb(0, 0, 0); stroke-width: 1px; fill: none;"></path></g><g><g transform="translate(326 315) rotate(0 23.326077873147995 -0.14604774780573848)"><path d="M-0.9413406461477279 -0.2543301969766617 C6.402018315593403 -0.24055465757846836, 37.40133278270562 -0.19857935011386874, 45.22706173956394 -0.10276950895786285 M0.5405813748389483 -1.3964551491290331 C8.613101191396515 -1.219056765511632, 39.9094541302075 1.116985912844539, 47.593496392443775 1.1043596535176041" style="stroke: rgb(0, 0, 0); stroke-width: 1px; fill: none;"></path></g><g transform="translate(326 315) rotate(0 23.326077873147995 -0.14604774780573848)"><path d="M25.247945625615518 6.776051009878065 C34.219515305704505 5.493192350654829, 43.63322670557605 1.786888953247157, 47.63717874415219 1.695158970281482 M26.02419811142723 7.25979362694874 C31.083490061600685 6.5949256721076335, 35.75855459130571 5.584207761499254, 47.322765651121735 0.6607452972978356" style="stroke: rgb(0, 0, 0); stroke-width: 1px; fill: none;"></path></g><g transform="translate(326 315) rotate(0 23.326077873147995 -0.14604774780573848)"><path d="M25.90288996970339 -8.943237367343993 C34.5899987519806 -3.9868669881484617, 43.743538534088756 -1.4488036327035791, 47.63717874415219 1.695158970281482 M26.6791424555151 -8.459494750273318 C31.728807022341055 -5.604147327692336, 36.257366412846736 -3.098602287703272, 47.322765651121735 0.6607452972978356" style="stroke: rgb(0, 0, 0); stroke-width: 1px; fill: none;"></path></g></g><g transform="translate(451.5 206.5) rotate(0 125.5 67.5)"><path d="M0.06046523857892751 1.1349554434101699 C74.09460393935308 -1.3653549205101736, 148.94011600588652 -0.38476706643493275, 252.57054829778264 0.4280694661827683 M-0.7573081689307868 0.1461007419880569 C60.109690168822176 2.616809607853303, 121.54961905348065 2.286674468514047, 251.65109188158516 0.4611151968218505 M252.49262522161007 -1.4879276603460312 C250.23643013127148 43.93661468848586, 248.89492365010082 86.35799846798182, 251.0935940593481 136.87883879244328 M250.48794186860323 0.4419393464922905 C251.59314956627787 50.95873917266727, 250.14800848923625 100.68842199444772, 250.03899324685335 134.24301885813475 M250.75768392658475 134.57007457277496 C181.03562755844686 133.02779028922822, 110.84757897403702 134.98517980284936, -0.3227968979273438 135.44380414918524 M250.58151524344447 135.7292699081345 C190.17405611155812 134.9768561253026, 131.39206084884293 134.98940365091696, -0.08091052023636698 134.69110007032916 M1.5417232364416122 135.5223462730646 C-1.5987602401524783 98.36317071691155, 0.0950421165674924 63.84634440392256, -1.5951314121484756 1.411604180932045 M-0.6921170875430107 135.81606721132994 C-0.20095969103276734 97.83463177457452, -0.7577493276447058 59.61051292717457, 0.6958636119961739 0.032414667308330536" style="stroke: rgb(0, 0, 0); stroke-width: 1px; fill: none;"></path></g><g transform="translate(465 217) rotate(0 34.5 25.5)"><text x="0" y="18.5" font-family="Virgil" font-size="20px" fill="#000000" text-anchor="start">title</text><text x="0" y="44" font-family="Virgil" font-size="20px" fill="#000000" text-anchor="start">desc,,,,,</text></g><g transform="translate(619.5 297.5) rotate(0 36.5 16)"><path d="M0.09712789952754974 0.46083809435367584 C29.228469160944226 1.1557484137266874, 58.15276391357184 0.0169463621824979, 71.81330059468746 0.8330061584711075 M-0.36471688002347946 0.7514843866229057 C15.649832464009524 0.21552578486502172, 30.29292947649956 0.43493978060781957, 73.1319063976407 -0.7462794855237007 M73.24390743672848 1.6558783203363419 C72.14122099101543 12.493979445099832, 73.33241409480571 23.273746219277385, 74.42735002934933 31.613266721367836 M73.85419452935457 0.8241264745593071 C72.24519485026597 10.015848033130169, 71.87513464480638 18.4363217279315, 72.76330102235079 32.30364989489317 M72.25700472295284 30.87498165667057 C53.10579151138663 33.084232204034926, 36.336398978531356 32.35201584585011, -1.2119116932153702 31.810656800866127 M72.0975886657834 31.702486030757427 C51.0205043695867 32.3711197604984, 27.535346648097033 32.27420380018651, -0.3296009227633476 31.83385729044676 M-1.8230528980493546 31.41355825960636 C-0.3759262591600418 22.946264591813087, -1.8418071299791337 13.409894385933875, -0.45458222925662994 0.8612115532159805 M0.38035810738801956 32.266201727092266 C0.04504593878984453 22.60503637045622, 0.9173410800099373 14.29518174380064, 0.6884056404232979 0.028668873012065887" style="stroke: rgb(0, 0, 0); stroke-width: 1px; fill: none;"></path></g><g><g transform="translate(633.5 313.5) rotate(0 22.4381218320504 -0.3730753944531102)"><path d="M0.0582767397165298 0.2765028566122054 C7.829089314738909 0.3036450952291488, 38.81972458263238 0.9919949144124985, 46.66939152777195 0.9984370797872544 M-1.7931478636711837 -1.7005272717028856 C6.109168400640289 -1.9387993592768908, 38.13334024814268 -1.2262152380496265, 46.328067630007865 -0.6674318904429675" style="stroke: rgb(0, 0, 0); stroke-width: 1px; fill: none;"></path></g><g transform="translate(633.5 313.5) rotate(0 22.4381218320504 -0.3730753944531102)"><path d="M24.871023925106428 7.420053803150106 C32.682374099368204 6.103474585683323, 38.20024476491963 0.8722313297837498, 47.16107378847897 -2.62715633161366 M25.161670217375658 7.207227931146074 C29.28272723100737 5.739564932620745, 34.04078687376202 3.6288609972619694, 45.581788144484165 -0.32447760500013834" style="stroke: rgb(0, 0, 0); stroke-width: 1px; fill: none;"></path></g><g transform="translate(633.5 313.5) rotate(0 22.4381218320504 -0.3730753944531102)"><path d="M25.51742620321305 -8.299588154444852 C33.241916717655776 -4.841646132670476, 38.56346875860877 -5.298682067806502, 47.16107378847897 -2.62715633161366 M25.80807249548228 -8.512414026448884 C29.823456654674967 -6.727289508719851, 34.44766253762666 -5.582848389603153, 45.581788144484165 -0.32447760500013834" style="stroke: rgb(0, 0, 0); stroke-width: 1px; fill: none;"></path></g></g><g transform="translate(464.5 298) rotate(0 36.5 16)"><path d="M1.8904254585504532 0.7273096889257431 C28.320767911523582 -1.6752032899111509, 56.68154554516077 0.13696149356663223, 71.97826124727726 -0.3513326793909073 M-0.6291647031903267 -0.4093877002596855 C25.340171658247712 0.49600326143205165, 48.96184414029122 -0.8280974713712931, 72.50766920298338 0.7000972107052803 M74.0728619247675 0.11797045171260834 C71.65981087505817 10.741414508223535, 72.4465001565218 19.8755854934454, 72.42462898790836 30.265875324606895 M72.30744528025389 -0.3088768646121025 C73.2831042382121 8.906623943150045, 73.1402364346385 20.243348200619224, 72.49627351015806 32.618608839809895 M73.5596349388361 30.13813255727291 C46.56533493772149 31.54457922808826, 17.89697792977094 32.16060753695667, 1.6621496826410294 33.627330765128136 M73.26119851320982 32.31343115121126 C47.51082334294915 32.08869842030108, 22.582217887043953 31.33898428417742, 0.37970661371946335 32.81795085221529 M-0.010095342993736267 32.68769834935665 C-0.11419383704662323 23.051183041930198, 1.2675577002763747 18.201761850714682, 0.4706084877252579 0.7423109859228134 M-0.8101413324475288 31.667741425335407 C-0.17158518344163892 21.74255996495485, 0.17341627568006518 11.558230860531328, 0.9204196855425835 -0.4213591739535332" style="stroke: rgb(0, 0, 0); stroke-width: 1px; fill: none;"></path></g><g><g transform="translate(525 315) rotate(0 -24.276699780784554 0.07320835800737768)"><path d="M0.8374651819467542 -0.31820224821567533 C-7.283713413278262 -0.16350568830966947, -40.53170017500719 0.5341855615377427, -48.940723618865015 0.5301937669515611 M-1.3459215610474349 -0.3196733207255602 C-9.76372581573824 -0.4521848339587451, -41.220942797785 -0.3764585465937853, -49.39086474351585 -0.13203425355255605" style="stroke: rgb(0, 0, 0); stroke-width: 1px; fill: none;"></path></g><g transform="translate(525 315) rotate(0 -24.276699780784554 0.07320835800737768)"><path d="M-27.018226940227034 -8.734029989324322 C-32.09621033141629 -7.245454276294073, -40.013241811145136 -2.5427074181200213, -48.66623651854694 -1.6029867792874575 M-27.234039168847087 -8.206117707870712 C-33.23989145078738 -6.629618067374292, -38.89831015917525 -3.1282611366358912, -48.894902131184935 0.47922557197511195" style="stroke: rgb(0, 0, 0); stroke-width: 1px; fill: none;"></path></g><g transform="translate(525 315) rotate(0 -24.276699780784554 0.07320835800737768)"><path d="M-26.783745366931445 8.023316591428001 C-31.872321920194373 4.784678198835813, -39.85552308289197 4.758574533442068, -48.66623651854694 -1.6029867792874575 M-26.999557595551497 8.55122887288161 C-33.03586674835951 5.393080859811789, -38.76053389031068 4.159959315123301, -48.894902131184935 0.47922557197511195" style="stroke: rgb(0, 0, 0); stroke-width: 1px; fill: none;"></path></g></g><g transform="translate(1175 374) rotate(0 23 13)"><text x="0" y="18" font-family="Virgil" font-size="20px" fill="#000000" text-anchor="start">(list)</text></g><g><g transform="translate(332 322) rotate(0 156.51832486562427 219.0970978850499)"><path d="M0.6432668298482895 -0.06685639321804038 C52.76940910915534 73.01377470393975, 261.8980187346538 365.1956738064686, 313.7750429719687 437.8992998987436 M-1.3322653741389514 0.07812493868172177 C51.32036924096445 72.9102972617497, 262.1253749574472 365.2979042695711, 314.36891510538754 438.2610521633178" style="stroke: rgb(0, 0, 0); stroke-width: 1px; fill: none;"></path></g><g transform="translate(332 322) rotate(0 156.51832486562427 219.0970978850499)"><path d="M289.4707544810452 422.65255813791816 C300.5378508299852 425.9076755767016, 307.16967013468866 432.545434828263, 315.75472737304864 436.8050244320184 M289.1062121383228 421.8291325841791 C297.1743686900884 426.29093337241693, 305.1968006740598 432.2052700783707, 313.6743282397836 437.85846259631217" style="stroke: rgb(0, 0, 0); stroke-width: 1px; fill: none;"></path></g><g transform="translate(332 322) rotate(0 156.51832486562427 219.0970978850499)"><path d="M306.1330084050358 410.67385634856305 C310.7293062631337 418.6282854466024, 310.9486720077445 429.8760373969212, 315.75472737304864 436.8050244320184 M305.7684660623134 409.850430794824 C308.85641884213464 418.0718001787995, 311.8090414485749 427.6308859648811, 313.6743282397836 437.85846259631217" style="stroke: rgb(0, 0, 0); stroke-width: 1px; fill: none;"></path></g></g><g transform="translate(460.5 466) rotate(0 15.5 13)"><text x="0" y="18" font-family="Virgil" font-size="20px" fill="#000000" text-anchor="start">put</text></g><g transform="translate(374 221) rotate(0 5.5 5.5)"><path d="M-0.9778543681837619 -1.0082065983675421 C1.9260572865605357 -1.084590021437034, 4.790823948476464 -0.8470697588380427, 11.197885692026466 -0.2597601904533804 M0.22996630300767718 -0.4965875164140016 C2.6398418046068404 0.05111136492341757, 4.154382728645579 -0.1763738134875894, 11.085642401175573 0.2443471461068839 M11.007854664232582 0.7524971709586681 C10.607366224722938 1.6953435899689793, 10.08258948286064 5.6594166058115665, 11.370441552903504 10.98420020500198 M10.73393607516773 0.4282844215165824 C11.407825940605253 4.548677436867729, 10.593920819219202 8.162658661371097, 11.08594477106817 11.540044231666252 M11.567255160119384 11.773834122810513 C8.49672866296023 10.600465793861076, 5.547182905394584 10.534185664309188, 1.0394763528369366 9.963027791772038 M10.52342721153982 10.654928238643333 C7.126470924308523 11.434527960363775, 2.0854160214308646 11.570882980469614, 0.20766480644233531 10.887871777964756 M-0.2860206783749163 11.695834164414554 C-0.9085643801931294 8.57222389280796, 0.9951632495876401 7.191452766861767, -0.9931941122747958 -0.07299361666664472 M0.25356208761222665 10.99553112979047 C-0.03129881497472524 6.786444814549759, 0.007827508188784096 2.528060355922206, -0.4092606640886516 -0.5215162232983858" style="stroke: rgb(0, 0, 0); stroke-width: 1px; fill: none;"></path></g><g><g transform="translate(376 223) rotate(0 3.7906608091155363 6.072820111601629)"><path d="M-0.14198736213147645 0.5280425515025855 C1.4806674533834059 2.0319756037245194, 7.9229731096575655 8.301642947023113, 9.142003581300377 10.054872950538993 M-1.5606819630693645 1.760960678709671 C-0.08617460628661022 3.7289132723739993, 6.136606557068104 10.081782901141171, 7.832921994524076 11.617597671700642" style="stroke: rgb(0, 0, 0); stroke-width: 1px; fill: none;"></path></g></g><g><g transform="translate(383 222) rotate(0 -5.056701560034412 7.066908562122848)"><path d="M-0.10777499936521062 0.7930056419223546 C-2.198865936820706 2.7423637277136246, -9.88881799640755 10.26649541122218, -11.824658766016364 12.296705624088645 M1.711255645947531 1.4812855332624166 C-0.15702178031516545 3.511642406635607, -7.442658487164104 11.182166101488596, -9.62602388988249 13.340811482323334" style="stroke: rgb(0, 0, 0); stroke-width: 1px; fill: none;"></path></g></g><g><g transform="translate(385 237) rotate(0 137.45550719201566 253.5551620942727)"><path d="M0.478594645857811 -0.1578497976064681 C46.222910142938304 84.36217644115288, 228.9125152518352 422.15705466965835, 274.4324197381735 506.5331813722849 M0.825800524279475 1.1571074945479634 C46.17514343711237 85.66551951793332, 228.13575515640275 422.94048805224395, 273.4758693247288 507.2681739861518" style="stroke: rgb(0, 0, 0); stroke-width: 1px; fill: none;"></path></g><g transform="translate(385 237) rotate(0 137.45550719201566 253.5551620942727)"><path d="M250.8101138260066 488.03592227092184 C258.52254414304633 492.48613820375766, 264.45707012615065 500.5943212369467, 273.71379483930764 508.170688220337 M250.4537900101244 487.9290058209578 C259.07804982953104 494.60708940999876, 266.4917643716943 502.65257213281507, 273.6736805780977 507.81518535412846" style="stroke: rgb(0, 0, 0); stroke-width: 1px; fill: none;"></path></g><g transform="translate(385 237) rotate(0 137.45550719201566 253.5551620942727)"><path d="M268.87685340572716 478.30386579017744 C271.1720538464079 485.7186070821435, 271.73695398791494 496.7192601008714, 273.71379483930764 508.170688220337 M268.52052958984495 478.1969493402134 C270.5545354750489 488.53520792846086, 271.40586968593306 500.11566472616903, 273.6736805780977 507.81518535412846" style="stroke: rgb(0, 0, 0); stroke-width: 1px; fill: none;"></path></g></g><g transform="translate(535 474) rotate(0 30 13)"><text x="0" y="18" font-family="Virgil" font-size="20px" fill="#000000" text-anchor="start">delete</text></g><g><g transform="translate(165 326) rotate(0 11.776581898331614 -9.785472888983776)"><path d="M0.5061899095773696 -0.1068747907876968 C4.244086224834124 -3.347174365321795, 19.314402889211973 -16.624801515539485, 23.046973887085915 -19.72349647581577 M1.4400131041556596 0.15255069784820074 C5.0264484785745545 -2.9688240610311425, 18.142388361965615 -15.228046224390466, 21.854735830500722 -18.486725899651645" style="stroke: rgb(0, 0, 0); stroke-width: 4px; fill: none;"></path></g></g><g><g transform="translate(185 309) rotate(0 3.4380166978389184 -2.5759786183387234)"><path d="M0.09002236425876609 -0.9304548650979996 C1.3547507514556247 -1.5598098188638687, 6.472846753398577 -4.081033363938332, 7.613206854462623 -4.891928234696389 M-1.2782443922013045 1.804944050833583 C0.3412290325512488 0.8432969480007887, 6.838245296354096 -5.917966358140111, 8.15427778787911 -6.956901287510991" style="stroke: rgb(0, 0, 0); stroke-width: 4px; fill: none;"></path></g><g transform="translate(185 309) rotate(0 3.4380166978389184 -2.5759786183387234)"><path d="M5.5102846957600145 -2.6561042934614143 C7.0827205009895975 -4.289380103730203, 7.38765819376497 -5.619209268017871, 7.8299557467550045 -7.306148389205337 M5.709169654161337 -2.2802773032295427 C6.799986773018494 -4.124647041166296, 7.545747713785322 -6.266060815397859, 8.248661264181138 -6.972116712331772" style="stroke: rgb(0, 0, 0); stroke-width: 4px; fill: none;"></path></g><g transform="translate(185 309) rotate(0 3.4380166978389184 -2.5759786183387234)"><path d="M3.1700663326392293 -5.150328793574298 C5.426219122469539 -6.031930529990299, 6.438065899729575 -6.608330020509096, 7.8299557467550045 -7.306148389205337 M3.3689512910405517 -4.774501803342426 C5.394754331730201 -5.612359848655433, 7.073398443300279 -6.75949885903225, 8.248661264181138 -6.972116712331772" style="stroke: rgb(0, 0, 0); stroke-width: 4px; fill: none;"></path></g></g><g><g transform="translate(1210 603) rotate(0 -224.59692281775176 102.65866430453957)"><path d="M-1.1937578290700912 0.11583295762538914 C-75.68330698907376 34.521663754185035, -373.4523498624563 171.98645603756108, -447.6273024648428 206.28271957337856 M-0.7348937695473432 -1.3371498198062182 C-75.62941430740058 33.2953007997324, -373.9494742815941 172.31361983510357, -448.4589518659562 206.65447842888534" style="stroke: rgb(0, 0, 0); stroke-width: 4px; fill: none;"></path></g><g transform="translate(1210 603) rotate(0 -224.59692281775176 102.65866430453957)"><path d="M-427.0085321977774 184.44002431469679 C-431.9121462807311 191.66839527465237, -437.7158862702454 196.53351182442177, -449.7050997220725 205.8513158392161 M-427.6342424690763 184.77951844620227 C-432.0019035813659 190.72874259427314, -436.94787499013063 194.40260903406815, -448.52299229584634 207.3588872011751" style="stroke: rgb(0, 0, 0); stroke-width: 4px; fill: none;"></path></g><g transform="translate(1210 603) rotate(0 -224.59692281775176 102.65866430453957)"><path d="M-418.3746720290611 203.05658847065465 C-425.34836967849884 205.68456478085946, -433.24581535929565 206.03517616564062, -449.7050997220725 205.8513158392161 M-419.00038230036 203.39608260216013 C-425.17892104413147 205.1514961335198, -432.0841890516624 204.6006739498362, -448.52299229584634 207.3588872011751" style="stroke: rgb(0, 0, 0); stroke-width: 4px; fill: none;"></path></g></g><g transform="translate(968 724) rotate(0 85 13)"><text x="0" y="18" font-family="Virgil" font-size="20px" fill="#000000" text-anchor="start">could also be put</text></g><g><g transform="translate(594 301) rotate(0 -11.836914624436758 13.534163813232453)"><path d="M-0.9287016537040471 0.24247405193746085 C-4.960745273654659 4.798228749260307, -19.636700064564746 23.517850061878562, -23.33503892682493 27.935963233932853 M-0.3387903220485895 -0.8676356074679643 C-4.192451497319465 3.8771062254440047, -19.488091246389473 21.754112200392413, -23.258408086104318 26.66327565844171" style="stroke: rgb(0, 0, 0); stroke-width: 1px; fill: none;"></path></g></g></svg>